<?xml version="1.0" encoding="iso-8859-1"?>
<!-- Generator: Adobe Illustrator 19.0.0, SVG Export Plug-In . SVG Version: 6.00 Build 0)  -->
<svg version="1.1" id="Capa_1" xmlns="http://www.w3.org/2000/svg" xmlns:xlink="http://www.w3.org/1999/xlink" x="0px" y="0px"
	 viewBox="0 0 512 512" style="enable-background:new 0 0 512 512;" xml:space="preserve">
<path style="fill:#DB710D;" d="M383.421,11.943l-360.658,97.77c-16.427,4.453-26.135,21.381-21.682,37.808l89.69,330.854
	c4.453,16.427,21.381,26.135,37.808,21.682l360.658-97.77c16.427-4.453,26.135-21.381,21.682-37.808l-89.69-330.854
	C416.776,17.197,399.849,7.49,383.421,11.943z"/>
<g>
	<path style="fill:#FCC200;" d="M205.762,60.105L22.763,109.713c-16.427,4.453-26.135,21.381-21.682,37.808l89.69,330.854
		c4.453,16.427,21.381,26.135,37.808,21.682l170.63-46.255L205.762,60.105z"/>
	<path style="fill:#FCC200;" d="M442.838,53.784H69.163c-17.021,0-30.818,13.797-30.818,30.818v342.797
		c0,17.021,13.797,30.818,30.818,30.818h373.675c17.021,0,30.818-13.797,30.818-30.818V84.602
		C473.656,67.581,459.859,53.784,442.838,53.784z"/>
</g>
<path style="fill:#FFDE47;" d="M256.001,53.784H69.163c-17.021,0-30.818,13.797-30.818,30.818v342.797
	c0,17.021,13.797,30.818,30.818,30.818h186.838V53.784z"/>
<g>
	<path style="fill:#3F4052;" d="M130.189,170.711h251.624c8.51,0,15.409-6.899,15.409-15.409c0-8.51-6.899-15.409-15.409-15.409
		H130.189c-8.51,0-15.409,6.899-15.409,15.409C114.78,163.811,121.678,170.711,130.189,170.711z"/>
	<path style="fill:#3F4052;" d="M381.813,207.025H130.189c-8.51,0-15.409,6.899-15.409,15.409c0,8.51,6.899,15.409,15.409,15.409
		h251.624c8.51,0,15.409-6.899,15.409-15.409C397.222,213.924,390.323,207.025,381.813,207.025z"/>
	<path style="fill:#3F4052;" d="M381.813,274.157H130.189c-8.51,0-15.409,6.899-15.409,15.409s6.899,15.409,15.409,15.409h251.624
		c8.51,0,15.409-6.899,15.409-15.409S390.323,274.157,381.813,274.157z"/>
	<path style="fill:#3F4052;" d="M275.768,341.291H130.189c-8.51,0-15.409,6.899-15.409,15.409c0,8.51,6.899,15.409,15.409,15.409
		h145.58c8.51,0,15.409-6.899,15.409-15.409C291.178,348.19,284.278,341.291,275.768,341.291z"/>
</g>
<g>
	<path style="fill:#B2B2E0;" d="M256.001,139.892H130.189c-8.51,0-15.409,6.899-15.409,15.409c0,8.51,6.899,15.409,15.409,15.409
		h125.812v-30.818H256.001z"/>
	<path style="fill:#B2B2E0;" d="M256.001,207.025H130.189c-8.51,0-15.409,6.899-15.409,15.409c0,8.51,6.899,15.409,15.409,15.409
		h125.812v-30.818H256.001z"/>
	<path style="fill:#B2B2E0;" d="M256.001,274.157H130.189c-8.51,0-15.409,6.899-15.409,15.409s6.899,15.409,15.409,15.409h125.812
		v-30.818H256.001z"/>
	<path style="fill:#B2B2E0;" d="M256.001,341.291H130.189c-8.51,0-15.409,6.899-15.409,15.409c0,8.51,6.899,15.409,15.409,15.409
		h125.812v-30.818H256.001z"/>
</g>
<g>
</g>
<g>
</g>
<g>
</g>
<g>
</g>
<g>
</g>
<g>
</g>
<g>
</g>
<g>
</g>
<g>
</g>
<g>
</g>
<g>
</g>
<g>
</g>
<g>
</g>
<g>
</g>
<g>
</g>
</svg>
