<?xml version="1.0" encoding="UTF-8" standalone="no"?>
<!-- Generator: Adobe Illustrator 19.0.0, SVG Export Plug-In . SVG Version: 6.00 Build 0)  -->

<svg
   xmlns:dc="http://purl.org/dc/elements/1.1/"
   xmlns:cc="http://creativecommons.org/ns#"
   xmlns:rdf="http://www.w3.org/1999/02/22-rdf-syntax-ns#"
   xmlns:svg="http://www.w3.org/2000/svg"
   xmlns="http://www.w3.org/2000/svg"
   xmlns:sodipodi="http://sodipodi.sourceforge.net/DTD/sodipodi-0.dtd"
   xmlns:inkscape="http://www.inkscape.org/namespaces/inkscape"
   version="1.1"
   id="Capa_1"
   x="0px"
   y="0px"
   viewBox="0 0 512 512"
   style="enable-background:new 0 0 512 512;"
   xml:space="preserve"
   sodipodi:docname="add.svg"
   inkscape:version="0.92.3 (2405546, 2018-03-11)"><metadata
   id="metadata43"><rdf:RDF><cc:Work
       rdf:about=""><dc:format>image/svg+xml</dc:format><dc:type
         rdf:resource="http://purl.org/dc/dcmitype/StillImage" /></cc:Work></rdf:RDF></metadata><defs
   id="defs41" /><sodipodi:namedview
   pagecolor="#ffffff"
   bordercolor="#666666"
   borderopacity="1"
   objecttolerance="10"
   gridtolerance="10"
   guidetolerance="10"
   inkscape:pageopacity="0"
   inkscape:pageshadow="2"
   inkscape:window-width="1920"
   inkscape:window-height="1001"
   id="namedview39"
   showgrid="false"
   inkscape:zoom="0.4609375"
   inkscape:cx="262.50847"
   inkscape:cy="256"
   inkscape:window-x="0"
   inkscape:window-y="40"
   inkscape:window-maximized="1"
   inkscape:current-layer="Capa_1" />
<g
   id="g6"
   transform="matrix(0.625,0,0,0.625,100,102)">
	<g
   id="g4">
		<path
   d="M 492,236 H 276 V 20 C 276,8.954 267.046,0 256,0 244.954,0 236,8.954 236,20 V 236 H 20 c -11.046,0 -20,8.954 -20,20 0,11.046 8.954,20 20,20 h 216 v 216 c 0,11.046 8.954,20 20,20 11.046,0 20,-8.954 20,-20 V 276 h 216 c 11.046,0 20,-8.954 20,-20 0,-11.046 -8.954,-20 -20,-20 z"
   id="path2"
   inkscape:connector-curvature="0" />
	</g>
</g>
<g
   id="g8"
   transform="matrix(0.78125,0,0,0.78125,58.576271,62.101695)">
</g>
<g
   id="g10"
   transform="matrix(0.78125,0,0,0.78125,58.576271,62.101695)">
</g>
<g
   id="g12"
   transform="matrix(0.78125,0,0,0.78125,58.576271,62.101695)">
</g>
<g
   id="g14"
   transform="matrix(0.78125,0,0,0.78125,58.576271,62.101695)">
</g>
<g
   id="g16"
   transform="matrix(0.78125,0,0,0.78125,58.576271,62.101695)">
</g>
<g
   id="g18"
   transform="matrix(0.78125,0,0,0.78125,58.576271,62.101695)">
</g>
<g
   id="g20"
   transform="matrix(0.78125,0,0,0.78125,58.576271,62.101695)">
</g>
<g
   id="g22"
   transform="matrix(0.78125,0,0,0.78125,58.576271,62.101695)">
</g>
<g
   id="g24"
   transform="matrix(0.78125,0,0,0.78125,58.576271,62.101695)">
</g>
<g
   id="g26"
   transform="matrix(0.78125,0,0,0.78125,58.576271,62.101695)">
</g>
<g
   id="g28"
   transform="matrix(0.78125,0,0,0.78125,58.576271,62.101695)">
</g>
<g
   id="g30"
   transform="matrix(0.78125,0,0,0.78125,58.576271,62.101695)">
</g>
<g
   id="g32"
   transform="matrix(0.78125,0,0,0.78125,58.576271,62.101695)">
</g>
<g
   id="g34"
   transform="matrix(0.78125,0,0,0.78125,58.576271,62.101695)">
</g>
<g
   id="g36"
   transform="matrix(0.78125,0,0,0.78125,58.576271,62.101695)">
</g>
</svg>