<?xml version="1.0" encoding="UTF-8" standalone="no"?>
<!-- Generator: Adobe Illustrator 19.0.0, SVG Export Plug-In . SVG Version: 6.00 Build 0)  -->

<svg
   xmlns:dc="http://purl.org/dc/elements/1.1/"
   xmlns:cc="http://creativecommons.org/ns#"
   xmlns:rdf="http://www.w3.org/1999/02/22-rdf-syntax-ns#"
   xmlns:svg="http://www.w3.org/2000/svg"
   xmlns="http://www.w3.org/2000/svg"
   xmlns:sodipodi="http://sodipodi.sourceforge.net/DTD/sodipodi-0.dtd"
   xmlns:inkscape="http://www.inkscape.org/namespaces/inkscape"
   version="1.1"
   id="Capa_1"
   x="0px"
   y="0px"
   viewBox="0 0 511.999 511.999"
   style="enable-background:new 0 0 511.999 511.999;"
   xml:space="preserve"
   sodipodi:docname="back.svg"
   inkscape:version="0.92.3 (2405546, 2018-03-11)"><metadata
   id="metadata49"><rdf:RDF><cc:Work
       rdf:about=""><dc:format>image/svg+xml</dc:format><dc:type
         rdf:resource="http://purl.org/dc/dcmitype/StillImage" /></cc:Work></rdf:RDF></metadata><defs
   id="defs47" /><sodipodi:namedview
   pagecolor="#ffffff"
   bordercolor="#666666"
   borderopacity="1"
   objecttolerance="10"
   gridtolerance="10"
   guidetolerance="10"
   inkscape:pageopacity="0"
   inkscape:pageshadow="2"
   inkscape:window-width="1920"
   inkscape:window-height="1001"
   id="namedview45"
   showgrid="false"
   inkscape:zoom="0.65186535"
   inkscape:cx="14.50381"
   inkscape:cy="191.32789"
   inkscape:window-x="0"
   inkscape:window-y="40"
   inkscape:window-maximized="1"
   inkscape:current-layer="g6" />
<g
   id="g6">
	<g
   id="g4"
   transform="matrix(0.99474344,0,0,0.90900928,23.728068,91.999447)">
		<path
   d="M 283.23745,81.317485 92.595,81.701 c -4.405991,0.0089 -8.377,2.653 -10.066,6.727 -1.683,4.069 -0.752,8.753 2.364,11.869 l 81.702,81.702 c 4.248,4.254 11.155,4.254 15.404,0 4.254,-4.254 4.254,-11.15 0,-15.404 l -63.101,-63.107 164.34045,-0.38351 c 54.05985,-0.12616 97.48992,43.98582 98.043,98.043 l 0.31771,31.05262 c 0.55309,54.05717 -43.983,98.043 -98.043,98.043 h -136.17 c -6.013,0 -10.894,4.88 -10.894,10.894 0,6.014 4.88,10.894 10.894,10.894 h 136.17 c 66.075,0 120.50599,-53.75846 119.83,-119.83 l -0.31771,-31.05362 c -10e-4,-66.076 -53.75613,-119.962927 -119.831,-119.830005 z"
   id="path2"
   inkscape:connector-curvature="0"
   sodipodi:nodetypes="sscsccccssssssssscs" />
	</g>
</g>
<g
   id="g12"
   transform="matrix(0.99474344,0,0,0.90900928,23.728068,94.927987)">
	<g
   id="g10">
		<path
   d="m 181.999,3.19 c -4.249,-4.254 -11.155,-4.254 -15.404,0 L 84.893,84.893 c -4.254,4.254 -4.254,11.15 0,15.404 2.124,2.13 4.913,3.192 7.702,3.192 2.789,0 5.578,-1.062 7.702,-3.192 l 81.702,-81.702 c 4.254,-4.255 4.254,-11.151 0,-15.405 z"
   id="path8"
   inkscape:connector-curvature="0" />
	</g>
</g>
<g
   id="g14">
</g>
<g
   id="g16">
</g>
<g
   id="g18">
</g>
<g
   id="g20">
</g>
<g
   id="g22">
</g>
<g
   id="g24">
</g>
<g
   id="g26">
</g>
<g
   id="g28">
</g>
<g
   id="g30">
</g>
<g
   id="g32">
</g>
<g
   id="g34">
</g>
<g
   id="g36">
</g>
<g
   id="g38">
</g>
<g
   id="g40">
</g>
<g
   id="g42">
</g>
</svg>