<?xml version="1.0" encoding="UTF-8" standalone="no"?>
<!-- Generator: Adobe Illustrator 19.0.0, SVG Export Plug-In . SVG Version: 6.00 Build 0)  -->

<svg
   xmlns:dc="http://purl.org/dc/elements/1.1/"
   xmlns:cc="http://creativecommons.org/ns#"
   xmlns:rdf="http://www.w3.org/1999/02/22-rdf-syntax-ns#"
   xmlns:svg="http://www.w3.org/2000/svg"
   xmlns="http://www.w3.org/2000/svg"
   xmlns:sodipodi="http://sodipodi.sourceforge.net/DTD/sodipodi-0.dtd"
   xmlns:inkscape="http://www.inkscape.org/namespaces/inkscape"
   version="1.1"
   id="Capa_1"
   x="0px"
   y="0px"
   viewBox="0 0 340.8 340.8"
   style="enable-background:new 0 0 340.8 340.8;"
   xml:space="preserve"
   sodipodi:docname="close-2.svg"
   inkscape:version="0.92.3 (2405546, 2018-03-11)"><metadata
   id="metadata49"><rdf:RDF><cc:Work
       rdf:about=""><dc:format>image/svg+xml</dc:format><dc:type
         rdf:resource="http://purl.org/dc/dcmitype/StillImage" /></cc:Work></rdf:RDF></metadata><defs
   id="defs47" /><sodipodi:namedview
   pagecolor="#ffffff"
   bordercolor="#666666"
   borderopacity="1"
   objecttolerance="10"
   gridtolerance="10"
   guidetolerance="10"
   inkscape:pageopacity="0"
   inkscape:pageshadow="2"
   inkscape:window-width="1920"
   inkscape:window-height="1001"
   id="namedview45"
   showgrid="false"
   inkscape:zoom="0.69248829"
   inkscape:cx="174.7322"
   inkscape:cy="170.39999"
   inkscape:window-x="0"
   inkscape:window-y="40"
   inkscape:window-maximized="1"
   inkscape:current-layer="Capa_1" />
<g
   id="g6"
   transform="matrix(0.73356808,0,0,0.73356808,45,50.799986)">
	<g
   id="g4">
		<path
   d="M 170.4,0 C 76.4,0 0,76.4 0,170.4 c 0,94 76.4,170.4 170.4,170.4 94,0 170.4,-76.4 170.4,-170.4 C 340.8,76.4 264.4,0 170.4,0 Z m 0,323.6 C 86,323.6 17.2,254.8 17.2,170.4 17.2,86 86,17.2 170.4,17.2 c 84.4,0 153.2,68.8 153.2,153.2 0,84.4 -68.8,153.2 -153.2,153.2 z"
   id="path2"
   inkscape:connector-curvature="0" />
	</g>
</g>
<g
   id="g12"
   transform="matrix(0.73356808,0,0,0.73356808,45,50.799986)">
	<g
   id="g10">
		<path
   d="m 182.4,169.6 50,-50 c 3.2,-3.2 3.2,-8.8 0,-12 -3.2,-3.2 -8.8,-3.2 -12,0 l -50,50 -50,-50 c -3.2,-3.2 -8.8,-3.2 -12,0 -3.2,3.2 -3.2,8.8 0,12 l 50,50 -50,49.6 c -3.2,3.2 -3.2,8.8 0,12 1.6,1.6 4,2.4 6,2.4 2,0 4.4,-0.8 6,-2.4 l 50,-50 50,50 c 1.6,1.6 4,2.4 6,2.4 2,0 4.4,-0.8 6,-2.4 3.2,-3.2 3.2,-8.8 0,-12 z"
   id="path8"
   inkscape:connector-curvature="0" />
	</g>
</g>
<g
   id="g14"
   transform="matrix(0.73356808,0,0,0.73356808,45,50.799986)">
</g>
<g
   id="g16"
   transform="matrix(0.73356808,0,0,0.73356808,45,50.799986)">
</g>
<g
   id="g18"
   transform="matrix(0.73356808,0,0,0.73356808,45,50.799986)">
</g>
<g
   id="g20"
   transform="matrix(0.73356808,0,0,0.73356808,45,50.799986)">
</g>
<g
   id="g22"
   transform="matrix(0.73356808,0,0,0.73356808,45,50.799986)">
</g>
<g
   id="g24"
   transform="matrix(0.73356808,0,0,0.73356808,45,50.799986)">
</g>
<g
   id="g26"
   transform="matrix(0.73356808,0,0,0.73356808,45,50.799986)">
</g>
<g
   id="g28"
   transform="matrix(0.73356808,0,0,0.73356808,45,50.799986)">
</g>
<g
   id="g30"
   transform="matrix(0.73356808,0,0,0.73356808,45,50.799986)">
</g>
<g
   id="g32"
   transform="matrix(0.73356808,0,0,0.73356808,45,50.799986)">
</g>
<g
   id="g34"
   transform="matrix(0.73356808,0,0,0.73356808,45,50.799986)">
</g>
<g
   id="g36"
   transform="matrix(0.73356808,0,0,0.73356808,45,50.799986)">
</g>
<g
   id="g38"
   transform="matrix(0.73356808,0,0,0.73356808,45,50.799986)">
</g>
<g
   id="g40"
   transform="matrix(0.73356808,0,0,0.73356808,45,50.799986)">
</g>
<g
   id="g42"
   transform="matrix(0.73356808,0,0,0.73356808,45,50.799986)">
</g>
</svg>