<?xml version="1.0" encoding="UTF-8" standalone="no"?>
<!-- Generator: Adobe Illustrator 19.0.0, SVG Export Plug-In . SVG Version: 6.00 Build 0)  -->

<svg
   xmlns:dc="http://purl.org/dc/elements/1.1/"
   xmlns:cc="http://creativecommons.org/ns#"
   xmlns:rdf="http://www.w3.org/1999/02/22-rdf-syntax-ns#"
   xmlns:svg="http://www.w3.org/2000/svg"
   xmlns="http://www.w3.org/2000/svg"
   xmlns:sodipodi="http://sodipodi.sourceforge.net/DTD/sodipodi-0.dtd"
   xmlns:inkscape="http://www.inkscape.org/namespaces/inkscape"
   version="1.1"
   id="Capa_1"
   x="0px"
   y="0px"
   viewBox="0 0 512.001 512.001"
   style="enable-background:new 0 0 512.001 512.001;"
   xml:space="preserve"
   sodipodi:docname="close-white.svg"
   inkscape:version="0.92.3 (2405546, 2018-03-11)"><metadata
     id="metadata43"><rdf:RDF><cc:Work
         rdf:about=""><dc:format>image/svg+xml</dc:format><dc:type
           rdf:resource="http://purl.org/dc/dcmitype/StillImage" /></cc:Work></rdf:RDF></metadata><defs
     id="defs41" /><sodipodi:namedview
     pagecolor="#ffffff"
     bordercolor="#666666"
     borderopacity="1"
     objecttolerance="10"
     gridtolerance="10"
     guidetolerance="10"
     inkscape:pageopacity="0"
     inkscape:pageshadow="2"
     inkscape:window-width="1920"
     inkscape:window-height="1001"
     id="namedview39"
     showgrid="false"
     inkscape:zoom="1.3037256"
     inkscape:cx="168.32213"
     inkscape:cy="146.33287"
     inkscape:window-x="0"
     inkscape:window-y="40"
     inkscape:window-maximized="1"
     inkscape:current-layer="Capa_1" /><g
     id="g6"
     transform="matrix(0.48827982,0,0,0.48828101,130.00012,137.00061)">
	<g
   id="g4">
		<path
   d="M 284.286,256.002 506.143,34.144 c 7.811,-7.811 7.811,-20.475 0,-28.285 -7.811,-7.81 -20.475,-7.811 -28.285,0 L 256,227.717 34.143,5.859 c -7.811,-7.811 -20.475,-7.811 -28.285,0 -7.81,7.811 -7.811,20.475 0,28.285 L 227.715,256.001 5.858,477.859 c -7.811,7.811 -7.811,20.475 0,28.285 3.905,3.905 9.024,5.857 14.143,5.857 5.119,0 10.237,-1.952 14.143,-5.857 L 256,284.287 477.857,506.144 c 3.905,3.905 9.024,5.857 14.143,5.857 5.119,0 10.237,-1.952 14.143,-5.857 7.811,-7.811 7.811,-20.475 0,-28.285 z"
   id="path2"
   inkscape:connector-curvature="0" />
	</g>
</g><path
     style="fill:#ffffff;fill-opacity:1;stroke:#000000"
     d="m 136.76743,385.78401 c -4.70643,-1.61799 -7.45238,-6.65322 -6.10246,-11.19 0.29335,-0.98588 25.4348,-26.73182 55.86988,-57.21321 l 55.33651,-55.42069 -54.95033,-55.03199 C 156.69834,176.66053 131.58968,151.1422 131.124,150.22073 c -1.15781,-2.29105 -1.06223,-4.54182 0.31626,-7.44677 1.52195,-3.20726 4.79484,-5.06793 8.91441,-5.06793 h 3.32088 l 55.24589,55.22634 c 30.38523,30.37449 55.58464,55.22635 55.99867,55.22635 0.41403,0 25.61343,-24.85186 55.99867,-55.22635 l 55.24588,-55.22634 h 3.28556 c 6.58789,0 10.67257,4.23487 9.86831,10.23114 -0.38709,2.88589 -3.87815,6.54371 -55.88388,58.55316 l -55.47102,55.47497 55.47102,55.47497 c 52.00573,52.00946 55.49679,55.66727 55.88388,58.55316 0.27466,2.04777 -0.006,3.88785 -0.83789,5.49689 -1.98704,3.84251 -4.65137,5.07583 -10.41081,4.81916 -1.45032,-0.0647 -15.09493,-13.27 -57.15105,-55.31125 -30.38524,-30.37449 -55.58695,-55.22634 -56.00381,-55.22634 -0.41686,0 -25.43843,24.67871 -55.60348,54.84159 -38.869,38.86618 -55.53285,55.0387 -57.20495,55.51825 -1.59818,0.45835 -3.32072,0.34617 -5.33911,-0.34772 z"
     id="path24"
     inkscape:connector-curvature="0" /></svg>