<?xml version="1.0" encoding="UTF-8" standalone="no"?>
<!-- Generator: Adobe Illustrator 19.0.0, SVG Export Plug-In . SVG Version: 6.00 Build 0)  -->

<svg
   xmlns:dc="http://purl.org/dc/elements/1.1/"
   xmlns:cc="http://creativecommons.org/ns#"
   xmlns:rdf="http://www.w3.org/1999/02/22-rdf-syntax-ns#"
   xmlns:svg="http://www.w3.org/2000/svg"
   xmlns="http://www.w3.org/2000/svg"
   xmlns:sodipodi="http://sodipodi.sourceforge.net/DTD/sodipodi-0.dtd"
   xmlns:inkscape="http://www.inkscape.org/namespaces/inkscape"
   version="1.1"
   id="Capa_1"
   x="0px"
   y="0px"
   viewBox="0 0 512 512"
   style="enable-background:new 0 0 512 512;"
   xml:space="preserve"
   sodipodi:docname="create.svg"
   inkscape:version="0.92.3 (2405546, 2018-03-11)"><metadata
   id="metadata49"><rdf:RDF><cc:Work
       rdf:about=""><dc:format>image/svg+xml</dc:format><dc:type
         rdf:resource="http://purl.org/dc/dcmitype/StillImage" /></cc:Work></rdf:RDF></metadata><defs
   id="defs47" /><sodipodi:namedview
   pagecolor="#ffffff"
   bordercolor="#666666"
   borderopacity="1"
   objecttolerance="10"
   gridtolerance="10"
   guidetolerance="10"
   inkscape:pageopacity="0"
   inkscape:pageshadow="2"
   inkscape:window-width="1920"
   inkscape:window-height="1001"
   id="namedview45"
   showgrid="false"
   inkscape:zoom="0.4609375"
   inkscape:cx="262.50847"
   inkscape:cy="256"
   inkscape:window-x="0"
   inkscape:window-y="40"
   inkscape:window-maximized="1"
   inkscape:current-layer="Capa_1" />
<g
   id="g6"
   transform="matrix(0.72443067,0,0,0.7421875,74.545776,72)">
	<g
   id="g4">
		<path
   d="m 231.467,237.696 c -4.181,-4.075 -10.923,-4.032 -15.083,0.171 -90.923,92.736 -151.851,164.864 -194.112,259.093 -2.411,5.376 -0.021,11.691 5.355,14.101 1.429,0.64 2.922,0.939 4.373,0.939 4.053,0 7.957,-2.347 9.749,-6.315 40.96,-91.328 100.629,-161.877 189.888,-252.907 4.118,-4.181 4.032,-10.965 -0.17,-15.082 z"
   id="path2"
   inkscape:connector-curvature="0" />
	</g>
</g>
<g
   id="g12"
   transform="matrix(0.72443067,0,0,0.7421875,74.545776,72)">
	<g
   id="g10">
		<path
   d="M 480,0 C 250.624,0 64,186.624 64,416 c 0,5.888 4.779,10.667 10.667,10.667 153.216,0 293.611,-83.904 366.421,-218.944 1.771,-3.307 1.685,-7.317 -0.235,-10.517 -1.941,-3.221 -5.419,-5.205 -9.173,-5.205 h -39.509 l 70.848,-40.491 c 2.261,-1.28 3.968,-3.349 4.8,-5.803 15.168,-44.139 22.848,-89.579 22.848,-135.04 C 490.667,4.779 485.888,0 480,0 Z m -31.082,134.997 -102.208,58.39 c -4.203,2.432 -6.251,7.339 -5.013,12.011 1.237,4.693 5.461,7.936 10.304,7.936 h 61.333 C 343.957,329.152 220.587,401.515 85.483,405.184 91.115,196.139 260.117,27.136 469.184,21.483 c -1.088,38.186 -7.893,76.309 -20.266,113.514 z"
   id="path8"
   inkscape:connector-curvature="0" />
	</g>
</g>
<g
   id="g14">
</g>
<g
   id="g16">
</g>
<g
   id="g18">
</g>
<g
   id="g20">
</g>
<g
   id="g22">
</g>
<g
   id="g24">
</g>
<g
   id="g26">
</g>
<g
   id="g28">
</g>
<g
   id="g30">
</g>
<g
   id="g32">
</g>
<g
   id="g34">
</g>
<g
   id="g36">
</g>
<g
   id="g38">
</g>
<g
   id="g40">
</g>
<g
   id="g42">
</g>
</svg>