<?xml version="1.0" encoding="UTF-8" standalone="no"?>
<!-- Generator: Adobe Illustrator 19.0.0, SVG Export Plug-In . SVG Version: 6.00 Build 0)  -->

<svg
   xmlns:dc="http://purl.org/dc/elements/1.1/"
   xmlns:cc="http://creativecommons.org/ns#"
   xmlns:rdf="http://www.w3.org/1999/02/22-rdf-syntax-ns#"
   xmlns:svg="http://www.w3.org/2000/svg"
   xmlns="http://www.w3.org/2000/svg"
   xmlns:sodipodi="http://sodipodi.sourceforge.net/DTD/sodipodi-0.dtd"
   xmlns:inkscape="http://www.inkscape.org/namespaces/inkscape"
   version="1.1"
   id="Capa_1"
   x="0px"
   y="0px"
   viewBox="0 0 441.12 441.12"
   style="enable-background:new 0 0 441.12 441.12;"
   xml:space="preserve"
   sodipodi:docname="edit.svg"
   inkscape:version="0.92.3 (2405546, 2018-03-11)"><metadata
   id="metadata43"><rdf:RDF><cc:Work
       rdf:about=""><dc:format>image/svg+xml</dc:format><dc:type
         rdf:resource="http://purl.org/dc/dcmitype/StillImage" /></cc:Work></rdf:RDF></metadata><defs
   id="defs41" /><sodipodi:namedview
   pagecolor="#ffffff"
   bordercolor="#666666"
   borderopacity="1"
   objecttolerance="10"
   gridtolerance="10"
   guidetolerance="10"
   inkscape:pageopacity="0"
   inkscape:pageshadow="2"
   inkscape:window-width="1920"
   inkscape:window-height="1041"
   id="namedview39"
   showgrid="false"
   showguides="false"
   inkscape:zoom="0.75660683"
   inkscape:cx="104.62973"
   inkscape:cy="134.06099"
   inkscape:window-x="0"
   inkscape:window-y="0"
   inkscape:window-maximized="1"
   inkscape:current-layer="Capa_1" />
<g
   id="g6"
   transform="matrix(0.82743869,0,0,0.82749739,45.501052,29.910418)">
	<g
   id="g4">
		<path
   d="M 369.089,0.016 C 350.032,0.024 331.755,7.588 318.264,21.049 L 298.208,41.105 H 24 c -13.255,0 -24,10.745 -24,24 v 352 c 0,13.255 10.745,24 24,24 h 352 c 13.255,0 24,-10.745 24,-24 V 142.896 L 420.056,122.84 C 433.59,109.383 441.175,91.069 441.12,71.984 441.103,32.22 408.853,-0.001 369.089,0.016 Z M 384,417.104 c 0,4.418 -3.582,8 -8,8 H 24 c -4.418,0 -8,-3.582 -8,-8 v -352 c 0,-4.418 3.582,-8 8,-8 H 282.208 L 103.304,236.008 c -0.056,0.056 -0.08,0.144 -0.136,0.2 -1.213,1.247 -1.983,2.857 -2.192,4.584 L 89.664,342.608 c -0.495,4.391 2.663,8.351 7.054,8.846 0.293,0.033 0.588,0.05 0.882,0.05 0.297,10e-4 0.594,-0.017 0.888,-0.056 l 101.816,-11.312 c 1.727,-0.209 3.337,-0.979 4.584,-2.192 0.056,-0.056 0.144,-0.08 0.2,-0.136 L 384,158.896 Z m -268.968,-158 66.968,66.968 -75.336,8.368 z m 84.408,61.728 -79.2,-79.2 203.68,-203.616 79.2,79.2 z M 414,105.472 335.6,27.072 c 22.328,-16.59 53.435,-14.341 73.144,5.288 19.647,19.692 21.884,50.813 5.256,73.112 z"
   id="path2"
   inkscape:connector-curvature="0" />
	</g>
</g>
<g
   id="g8">
</g>
<g
   id="g10">
</g>
<g
   id="g12">
</g>
<g
   id="g14">
</g>
<g
   id="g16">
</g>
<g
   id="g18">
</g>
<g
   id="g20">
</g>
<g
   id="g22">
</g>
<g
   id="g24">
</g>
<g
   id="g26">
</g>
<g
   id="g28">
</g>
<g
   id="g30">
</g>
<g
   id="g32">
</g>
<g
   id="g34">
</g>
<g
   id="g36">
</g>
</svg>