<svg id="Capa_1" enable-background="new 0 0 512 512" viewBox="0 0 512 512" xmlns="http://www.w3.org/2000/svg"><g><path d="m479 45v422c0 24.81-20.19 45-45 45h-258c-8.28 0-15-6.72-15-15v-482c0-8.28 6.72-15 15-15h258c24.81 0 45 20.19 45 45z" fill="#b1d5f1"/><path d="m479 45v422c0 24.81-20.19 45-45 45h-114v-512h114c24.81 0 45 20.19 45 45z" fill="#8bb9ff"/><path d="m176 0v512h-66c-24.81 0-45-20.19-45-45v-422c0-24.81 20.19-45 45-45z" fill="#f4f4f6"/><g fill="#e2dff4"><path d="m112 111h-64c-8.284 0-15-6.716-15-15s6.716-15 15-15h64c8.284 0 15 6.716 15 15s-6.716 15-15 15z"/><path d="m112 191h-64c-8.284 0-15-6.716-15-15s6.716-15 15-15h64c8.284 0 15 6.716 15 15s-6.716 15-15 15z"/><path d="m112 271h-64c-8.284 0-15-6.716-15-15s6.716-15 15-15h64c8.284 0 15 6.716 15 15s-6.716 15-15 15z"/><path d="m112 351h-64c-8.284 0-15-6.716-15-15s6.716-15 15-15h64c8.284 0 15 6.716 15 15s-6.716 15-15 15z"/><path d="m112 431h-64c-8.284 0-15-6.716-15-15s6.716-15 15-15h64c8.284 0 15 6.716 15 15s-6.716 15-15 15z"/></g><path d="m384 96v64c0 8.28-6.72 15-15 15h-98c-8.28 0-15-6.72-15-15v-64c0-8.28 6.72-15 15-15h98c8.28 0 15 6.72 15 15z" fill="#fff16b"/><path d="m384 96v64c0 8.28-6.72 15-15 15h-49v-94h49c8.28 0 15 6.72 15 15z" fill="#ffd321"/></g></svg>
