<?xml version="1.0" encoding="UTF-8" standalone="no"?>
<!-- Generator: Adobe Illustrator 19.0.0, SVG Export Plug-In . SVG Version: 6.00 Build 0)  -->

<svg
   xmlns:dc="http://purl.org/dc/elements/1.1/"
   xmlns:cc="http://creativecommons.org/ns#"
   xmlns:rdf="http://www.w3.org/1999/02/22-rdf-syntax-ns#"
   xmlns:svg="http://www.w3.org/2000/svg"
   xmlns="http://www.w3.org/2000/svg"
   xmlns:sodipodi="http://sodipodi.sourceforge.net/DTD/sodipodi-0.dtd"
   xmlns:inkscape="http://www.inkscape.org/namespaces/inkscape"
   version="1.1"
   id="Capa_1"
   x="0px"
   y="0px"
   viewBox="0 0 511.999 511.999"
   style="enable-background:new 0 0 511.999 511.999;"
   xml:space="preserve"
   sodipodi:docname="play.svg"
   inkscape:version="0.92.3 (2405546, 2018-03-11)"><metadata
     id="metadata43"><rdf:RDF><cc:Work
         rdf:about=""><dc:format>image/svg+xml</dc:format><dc:type
           rdf:resource="http://purl.org/dc/dcmitype/StillImage" /></cc:Work></rdf:RDF></metadata><defs
     id="defs41" /><sodipodi:namedview
     pagecolor="#ffffff"
     bordercolor="#666666"
     borderopacity="1"
     objecttolerance="10"
     gridtolerance="10"
     guidetolerance="10"
     inkscape:pageopacity="0"
     inkscape:pageshadow="2"
     inkscape:window-width="1920"
     inkscape:window-height="1001"
     id="namedview39"
     showgrid="false"
     inkscape:zoom="0.92187681"
     inkscape:cx="19.665386"
     inkscape:cy="216.17084"
     inkscape:window-x="0"
     inkscape:window-y="40"
     inkscape:window-maximized="1"
     inkscape:current-layer="Capa_1" /><g
     id="g6"
     style="fill:#ffffff;stroke:#000000"
     transform="matrix(0.78964253,0,0,0.73813027,82.849721,68.707968)">
	<g
   id="g4"
   style="fill:#ffffff">
		<path
   d="M 443.86,196.919 141.46,10.514 C 119.582,-2.955 93.131,-3.515 70.702,9.016 48.273,21.545 34.883,44.366 34.883,70.057 v 371.112 c 0,38.846 31.3,70.619 69.77,70.829 0.105,0 0.21,0.001 0.313,0.001 12.022,-0.001 24.55,-3.769 36.251,-10.909 9.413,-5.743 12.388,-18.029 6.645,-27.441 -5.743,-9.414 -18.031,-12.388 -27.441,-6.645 -5.473,3.338 -10.818,5.065 -15.553,5.064 C 90.353,471.989 74.812,459.555 74.812,441.17 V 70.058 c 0,-11.021 5.744,-20.808 15.364,-26.183 9.621,-5.375 20.966,-5.135 30.339,0.636 l 302.401,186.405 c 9.089,5.596 14.29,14.927 14.268,25.601 -0.022,10.673 -5.261,19.983 -14.4,25.56 L 204.147,415.945 c -9.404,5.758 -12.36,18.049 -6.602,27.452 5.757,9.404 18.048,12.36 27.452,6.602 L 443.608,316.147 c 20.931,-12.769 33.457,-35.029 33.507,-59.55 0.05,-24.518 -12.386,-46.83 -33.255,-59.678 z"
   id="path2"
   style="fill:#ffffff"
   inkscape:connector-curvature="0" />
	</g>
</g></svg>