<?xml version="1.0" encoding="UTF-8" standalone="no"?>
<!-- Generator: Adobe Illustrator 19.0.0, SVG Export Plug-In . SVG Version: 6.00 Build 0)  -->

<svg
   xmlns:dc="http://purl.org/dc/elements/1.1/"
   xmlns:cc="http://creativecommons.org/ns#"
   xmlns:rdf="http://www.w3.org/1999/02/22-rdf-syntax-ns#"
   xmlns:svg="http://www.w3.org/2000/svg"
   xmlns="http://www.w3.org/2000/svg"
   xmlns:sodipodi="http://sodipodi.sourceforge.net/DTD/sodipodi-0.dtd"
   xmlns:inkscape="http://www.inkscape.org/namespaces/inkscape"
   version="1.1"
   id="Layer_1"
   x="0px"
   y="0px"
   viewBox="0 0 512.001 512.001"
   style="enable-background:new 0 0 512.001 512.001;"
   xml:space="preserve"
   sodipodi:docname="return.svg"
   inkscape:version="0.92.3 (2405546, 2018-03-11)"><metadata
   id="metadata43"><rdf:RDF><cc:Work
       rdf:about=""><dc:format>image/svg+xml</dc:format><dc:type
         rdf:resource="http://purl.org/dc/dcmitype/StillImage" /></cc:Work></rdf:RDF></metadata><defs
   id="defs41" /><sodipodi:namedview
   pagecolor="#ffffff"
   bordercolor="#666666"
   borderopacity="1"
   objecttolerance="10"
   gridtolerance="10"
   guidetolerance="10"
   inkscape:pageopacity="0"
   inkscape:pageshadow="2"
   inkscape:window-width="1920"
   inkscape:window-height="1001"
   id="namedview39"
   showgrid="false"
   inkscape:zoom="0.46093662"
   inkscape:cx="-105.97909"
   inkscape:cy="274.89263"
   inkscape:window-x="0"
   inkscape:window-y="40"
   inkscape:window-maximized="1"
   inkscape:current-layer="g4" />
<g
   id="g6">
	<g
   id="g4">
		<path
   d="m 296.4672,168.83258 -169.24738,-1.15055 73.326,-82.187004 c 4.755,-5.33 4.289,-13.505 -1.041,-18.26 -5.328,-4.754 -13.505,-4.29 -18.26,1.041 L 98.662818,160.83603 c -10.059,11.278 -10.058,28.282 0.001,39.557 l 82.582002,92.561 c 2.556,2.865 6.097,4.323 9.654,4.323 3.064,0 6.139,-1.083 8.606,-3.282 5.33,-4.755 5.795,-12.93 1.041,-18.26 l -73.326,-82.188 169.24738,1.15055 c 55.85671,0.37971 101.3,45.444 101.3,101.3 0,55.856 -45.443,101.3 -101.3,101.3 h -61.58 c -7.143,0 -12.933,5.791 -12.933,12.933 0,7.142 5.79,12.933 12.933,12.933 h 61.58 c 70.12,0 127.166,-57.046 127.166,-127.166 -0.001,-70.119 -57.04862,-126.68833 -127.167,-127.165 z"
   id="path2"
   inkscape:connector-curvature="0"
   sodipodi:nodetypes="scccccccscccssssssscs" />
	</g>
</g>
<g
   id="g8">
</g>
<g
   id="g10">
</g>
<g
   id="g12">
</g>
<g
   id="g14">
</g>
<g
   id="g16">
</g>
<g
   id="g18">
</g>
<g
   id="g20">
</g>
<g
   id="g22">
</g>
<g
   id="g24">
</g>
<g
   id="g26">
</g>
<g
   id="g28">
</g>
<g
   id="g30">
</g>
<g
   id="g32">
</g>
<g
   id="g34">
</g>
<g
   id="g36">
</g>
</svg>