<?xml version="1.0" encoding="UTF-8" standalone="no"?>
<svg
   xmlns:dc="http://purl.org/dc/elements/1.1/"
   xmlns:cc="http://creativecommons.org/ns#"
   xmlns:rdf="http://www.w3.org/1999/02/22-rdf-syntax-ns#"
   xmlns:svg="http://www.w3.org/2000/svg"
   xmlns="http://www.w3.org/2000/svg"
   xmlns:sodipodi="http://sodipodi.sourceforge.net/DTD/sodipodi-0.dtd"
   xmlns:inkscape="http://www.inkscape.org/namespaces/inkscape"
   id="Capa_1"
   enable-background="new 0 0 512 512"
   viewBox="0 0 512 512"
   version="1.1"
   sodipodi:docname="save.svg"
   inkscape:version="0.92.3 (2405546, 2018-03-11)">
  <metadata
     id="metadata19">
    <rdf:RDF>
      <cc:Work
         rdf:about="">
        <dc:format>image/svg+xml</dc:format>
        <dc:type
           rdf:resource="http://purl.org/dc/dcmitype/StillImage" />
      </cc:Work>
    </rdf:RDF>
  </metadata>
  <defs
     id="defs17" />
  <sodipodi:namedview
     pagecolor="#ffffff"
     bordercolor="#666666"
     borderopacity="1"
     objecttolerance="10"
     gridtolerance="10"
     guidetolerance="10"
     inkscape:pageopacity="0"
     inkscape:pageshadow="2"
     inkscape:window-width="1920"
     inkscape:window-height="1041"
     id="namedview15"
     showgrid="false"
     inkscape:zoom="0.5125"
     inkscape:cx="-146.06541"
     inkscape:cy="240.1761"
     inkscape:window-x="0"
     inkscape:window-y="0"
     inkscape:window-maximized="1"
     inkscape:current-layer="g12" />
  <g
     id="g12"
     transform="matrix(0.83984375,0,0,0.83984375,40,43)">
    <path
       d="M 490.10239,162.05924 347.54652,19.503372 C 338.02947,9.9972092 325.38326,4.7627907 311.93546,4.7627907 H 95.225 c -53.163547,0 -96.4156977,43.2521503 -96.4156977,96.4156993 V 414.3936 c 0,53.16355 43.2521507,96.4157 96.4156977,96.4157 h 313.21511 c 0.016,-4.3969 -0.021,-6.29263 0,-14.82558 H 95.225 c -44.988722,0 -81.590116,-36.6014 -81.590116,-81.59012 V 101.17849 c 0,-42.48913 32.650871,-77.47849 74.177326,-81.238258 v 59.91907 c 0,4.093837 3.318953,7.41279 7.41279,7.41279 4.093832,0 7.41279,-3.318953 7.41279,-7.41279 V 19.588372 H 304.52267 V 133.61686 c 0,16.63331 -13.52785,30.16512 -30.15523,30.16512 H 132.80291 c -16.63333,0 -30.16512,-13.53181 -30.16512,-30.16512 v -24.10639 c 0,-4.09385 -3.318958,-7.4128 -7.41279,-7.4128 -4.093837,0 -7.41279,3.31895 -7.41279,7.4128 v 24.10639 c 0,24.80814 20.18256,44.9907 44.9907,44.9907 h 141.56453 c 24.80221,0 44.98082,-20.18256 44.98082,-44.9907 V 20.366221 c 6.66262,1.406453 12.78755,4.699709 17.71854,9.623779 l 142.5529,142.55291 c 6.71303,6.71302 10.41053,15.63802 10.41053,25.13035 V 414.3936 c 0,44.98872 -36.6014,81.59012 -81.59012,81.59012 -4.09383,0 -7.41279,3.31895 -7.41279,7.41279 0,4.09384 3.31896,7.41279 7.41279,7.41279 53.16355,0 96.4157,-43.25215 96.4157,-96.4157 V 197.67326 c 0,-13.45274 -5.23936,-26.10093 -14.75342,-35.61402 z"
       id="path2"
       inkscape:connector-curvature="0"
       sodipodi:nodetypes="ccsssssccssscsssccsssssssssssccssssssssc"
       style="stroke-width:0.98837203" />
    <path
       d="M 282.92871,116.7068 V 69.377616 c 0,-18.76721 -15.26837,-34.035582 -34.03557,-34.035582 -18.76721,0 -34.03559,15.268372 -34.03559,34.035582 V 116.7068 c 0,18.76721 15.26838,34.03558 34.03559,34.03558 18.76819,0 34.03557,-15.26837 34.03557,-34.03558 z m -53.24458,0 V 69.377616 c 0,-10.592384 8.61762,-19.21 19.21,-19.21 10.59239,0 19.21,8.617616 19.21,19.21 V 116.7068 c 0,10.59239 -8.61761,19.21 -19.21,19.21 -10.59238,0 -19.21,-8.61761 -19.21,-19.21 z"
       id="path4"
       inkscape:connector-curvature="0"
       style="stroke-width:0.98837203" />
    <path
       d="m 415.85291,283.61814 c 0,-31.42233 -25.56425,-56.98756 -56.98757,-56.98756 H 144.79977 c -31.42332,0 -56.98756,25.56424 -56.98756,56.98756 v 94.1118 c 0,31.42233 25.56424,56.98756 56.98756,56.98756 h 214.06557 c 31.42233,0 56.98757,-25.56425 56.98757,-56.98756 z m -14.82559,94.11081 c 0,23.2475 -18.91349,42.16198 -42.16198,42.16198 H 144.79977 c -23.24849,0 -42.16198,-18.91349 -42.16198,-42.16198 v -94.1118 c 0,-23.2475 18.91349,-42.16198 42.16198,-42.16198 h 214.06557 c 23.2475,0 42.16198,18.91349 42.16198,42.16198 z"
       id="path6"
       inkscape:connector-curvature="0"
       style="stroke-width:0.98837203" />
    <path
       d="M 350.43454,300.82866 H 153.23057 c -4.09382,0 -7.41278,3.31896 -7.41278,7.41279 0,4.09384 3.31896,7.41279 7.41278,7.41279 h 197.20397 c 4.09384,0 7.41278,-3.31895 7.41278,-7.41279 0,-4.09383 -3.31894,-7.41279 -7.41278,-7.41279 z"
       id="path8"
       inkscape:connector-curvature="0"
       style="stroke-width:0.98837203" />
    <path
       d="M 350.43454,345.69285 H 153.23057 c -4.09382,0 -7.41278,3.31895 -7.41278,7.41279 0,4.09384 3.31896,7.41279 7.41278,7.41279 h 197.20397 c 4.09384,0 7.41278,-3.31895 7.41278,-7.41279 0,-4.09384 -3.31894,-7.41279 -7.41278,-7.41279 z"
       id="path10"
       inkscape:connector-curvature="0"
       style="stroke-width:0.98837203" />
  </g>
</svg>
