<?xml version="1.0" encoding="UTF-8" standalone="no"?>
<svg
   xmlns:dc="http://purl.org/dc/elements/1.1/"
   xmlns:cc="http://creativecommons.org/ns#"
   xmlns:rdf="http://www.w3.org/1999/02/22-rdf-syntax-ns#"
   xmlns:svg="http://www.w3.org/2000/svg"
   xmlns="http://www.w3.org/2000/svg"
   xmlns:sodipodi="http://sodipodi.sourceforge.net/DTD/sodipodi-0.dtd"
   xmlns:inkscape="http://www.inkscape.org/namespaces/inkscape"
   id="Capa_1"
   enable-background="new 0 0 512 512"
   viewBox="0 0 512 512"
   version="1.1"
   sodipodi:docname="search.svg"
   inkscape:version="0.92.3 (2405546, 2018-03-11)">
  <metadata
     id="metadata21">
    <rdf:RDF>
      <cc:Work
         rdf:about="">
        <dc:format>image/svg+xml</dc:format>
        <dc:type
           rdf:resource="http://purl.org/dc/dcmitype/StillImage" />
      </cc:Work>
    </rdf:RDF>
  </metadata>
  <defs
     id="defs19" />
  <sodipodi:namedview
     pagecolor="#ffffff"
     bordercolor="#666666"
     borderopacity="1"
     objecttolerance="10"
     gridtolerance="10"
     guidetolerance="10"
     inkscape:pageopacity="0"
     inkscape:pageshadow="2"
     inkscape:window-width="1920"
     inkscape:window-height="1001"
     id="namedview17"
     showgrid="false"
     inkscape:zoom="0.32593203"
     inkscape:cx="-585.79094"
     inkscape:cy="413.24313"
     inkscape:window-x="0"
     inkscape:window-y="40"
     inkscape:window-maximized="1"
     inkscape:current-layer="Capa_1" />
  <g
     id="g4"
     transform="matrix(15.889949,0,0,15.821448,62.486271,36.486473)">
    <path
       d="m 15,18 c -3.309,0 -6,-2.691 -6,-6 0,-3.309 2.691,-6 6,-6 3.309,0 6,2.691 6,6 0,3.309 -2.691,6 -6,6 z M 15,7 c -2.757,0 -5,2.243 -5,5 0,2.757 2.243,5 5,5 2.757,0 5,-2.243 5,-5 0,-2.757 -2.243,-5 -5,-5 z"
       id="path2"
       inkscape:connector-curvature="0" />
  </g>
  <g
     id="g8"
     transform="matrix(15.858878,0,0,16.746329,67.006444,29.001143)"
     style="opacity:1">
    <path
       d="m 23.5,21 c -0.128,0 -0.256,-0.049 -0.354,-0.146 L 18.53,16.238 c -0.195,-0.195 -0.195,-0.512 0,-0.707 0.195,-0.195 0.512,-0.195 0.707,0 l 4.616,4.616 c 0.195,0.195 0.195,0.512 0,0.707 C 23.756,20.951 23.628,21 23.5,21 Z"
       id="path6"
       inkscape:connector-curvature="0" />
  </g>
  <g
     id="g12"
     transform="matrix(11.18198,0,0,16.876212,39,75.120903)">
    <path
       d="M 17.5,2 H 0.5 C 0.224,2 0,1.776 0,1.5 0,1.224 0.224,1 0.5,1 h 17 C 17.776,1 18,1.224 18,1.5 18,1.776 17.776,2 17.5,2 Z"
       id="path10"
       inkscape:connector-curvature="0" />
  </g>
  <g
     id="g16"
     transform="matrix(23.888889,0,0,16.876212,39,35.263106)">
    <path
       d="M 17.579464,23.512492 0.48114247,23.5146 C 0.218188,23.514632 0.05414341,23.355719 0.05418272,23.093692 0.05422333,22.823022 0.22659785,22.67381 0.48114247,22.673718 L 17.58514,22.667558 c 0.226314,-8.2e-5 0.364244,0.187443 0.362684,0.410512 2.23e-4,0.259811 -0.118488,0.439694 -0.36836,0.434422 z"
       id="path14"
       inkscape:connector-curvature="0"
       sodipodi:nodetypes="csssscc" />
  </g>
  <g
     id="g20"
     transform="matrix(14.760282,0,0,16.876212,39,68.91482)">
    <path
       d="m 8.5,7.4766949 h -8 c -0.276,0 -0.5,-0.224 -0.5,-0.5 0,-0.276 0.224,-0.5 0.5,-0.5 h 8 c 0.276,0 0.5,0.224 0.5,0.5 0,0.276 -0.224,0.5 -0.5,0.5 z"
       id="path18"
       inkscape:connector-curvature="0" />
  </g>
  <g
     id="g24"
     transform="matrix(20.3354,0,0,16.876212,38.432333,44.967513)" />
  <g
     id="g28"
     transform="matrix(18.207443,0,0,16.876212,39,63.574187)">
    <path
       d="m 6.5,12.5 h -6 C 0.224,12.5 0,12.276 0,12 0,11.724 0.224,11.5 0.5,11.5 h 6 c 0.276,0 0.5,0.224 0.5,0.5 0,0.276 -0.224,0.5 -0.5,0.5 z"
       id="path26"
       inkscape:connector-curvature="0" />
  </g>
  <path
     d="m 465.46483,428.71418 c -310.30989,54.18863 -155.15494,27.09432 0,0 z"
     id="path20"
     inkscape:connector-curvature="0"
     sodipodi:nodetypes="cc" />
  <path
     style="stroke-width:19.90450859"
     d="M 193.42586,350.70004 H 49.517764 C 43.038331,350.70004 39,346.78418 39,342.12635 c 0,-4.65784 4.038332,-8.30558 10.517764,-8.30252 l 143.636906,0.0678 c 6.47943,0.003 10.17879,3.57688 10.17879,8.23472 0,4.65783 -3.42817,8.57369 -9.9076,8.57369 z"
     id="path26-3"
     inkscape:connector-curvature="0"
     sodipodi:nodetypes="sssssss" />
</svg>
