<?xml version="1.0" encoding="UTF-8" standalone="no"?>
<svg
   xmlns:dc="http://purl.org/dc/elements/1.1/"
   xmlns:cc="http://creativecommons.org/ns#"
   xmlns:rdf="http://www.w3.org/1999/02/22-rdf-syntax-ns#"
   xmlns:svg="http://www.w3.org/2000/svg"
   xmlns="http://www.w3.org/2000/svg"
   xmlns:sodipodi="http://sodipodi.sourceforge.net/DTD/sodipodi-0.dtd"
   xmlns:inkscape="http://www.inkscape.org/namespaces/inkscape"
   id="Capa_1"
   enable-background="new 0 0 512 512"
   viewBox="0 0 512 512"
   version="1.1"
   sodipodi:docname="task.svg"
   inkscape:version="0.92.3 (2405546, 2018-03-11)">
  <metadata
     id="metadata21">
    <rdf:RDF>
      <cc:Work
         rdf:about="">
        <dc:format>image/svg+xml</dc:format>
        <dc:type
           rdf:resource="http://purl.org/dc/dcmitype/StillImage" />
      </cc:Work>
    </rdf:RDF>
  </metadata>
  <defs
     id="defs19" />
  <sodipodi:namedview
     pagecolor="#ffffff"
     bordercolor="#666666"
     borderopacity="1"
     objecttolerance="10"
     gridtolerance="10"
     guidetolerance="10"
     inkscape:pageopacity="0"
     inkscape:pageshadow="2"
     inkscape:window-width="1920"
     inkscape:window-height="1001"
     id="namedview17"
     showgrid="false"
     inkscape:zoom="1.3037281"
     inkscape:cx="137.08046"
     inkscape:cy="184.59422"
     inkscape:window-x="0"
     inkscape:window-y="40"
     inkscape:window-maximized="1"
     inkscape:current-layer="Capa_1" />
  <g
     id="surface1"
     transform="matrix(3.4956665,0,0,3.6686149,20.81786,9.9173895)"
     style="fill:#000000">
    <path
       d="m 8.6726424,118.23441 c 0.01414,3.50283 3.1689046,6.33989 7.0592986,6.34838 H 119.05613 c 3.89983,-0.009 7.25267,-2.86319 7.25737,-6.36602 0,0 6.2e-4,-100.847124 6.2e-4,-101.975546 -0.28683,-4.301287 -4.01659,-6.2784568 -7.54819,-6.131764 -34.689809,0.240222 -71.636699,0.0321 -102.244577,-4e-6 -3.7868,-0.2022624 -7.5438909,2.332197 -7.8481046,6.078857 0.7184089,33.591128 0.065393,68.163755 -6.06e-4,102.046097 z m 113.4102976,-0.9431 c 0.0387,1.94512 -1.56103,3.23733 -3.03622,3.23733 H 15.731941 c -1.56256,0 -3.248379,-1.30485 -3.113086,-2.97039 l 0.307329,-99.133354 c -0.139507,-1.190925 0.493727,-4.027263 3.683024,-4.3645 l 102.090322,-0.16247 c 1.73685,-0.0853 3.81264,1.381582 3.70961,4.260038 z"
       style="fill:#000000;fill-opacity:1;fill-rule:nonzero;stroke:none;stroke-width:1.14480293"
       id="path4"
       inkscape:connector-curvature="0"
       sodipodi:nodetypes="ccccccccccsscccccc" />
    <path
       d="m 55.699677,50.874205 h 53.258333 c 1.24023,0 2.24939,-0.897298 2.24939,-2.00005 0,-1.111141 -1.00916,-2.004244 -2.24939,-2.004244 H 55.699677 c -1.244925,0 -2.249354,0.893103 -2.249354,2.004244 0,1.102752 1.004429,2.00005 2.249354,2.00005 z m 0,0"
       style="fill:#000000;fill-opacity:1;fill-rule:nonzero;stroke:none;stroke-width:1.13833773"
       id="path6"
       inkscape:connector-curvature="0" />
    <path
       d="m 55.699677,71.776202 h 53.258333 c 1.24023,0 2.24939,-0.897296 2.24939,-2.004242 0,-1.106947 -1.00916,-2.004246 -2.24939,-2.004246 H 55.699677 c -1.244925,0 -2.249354,0.897299 -2.249354,2.004246 0,1.106946 1.004429,2.004242 2.249354,2.004242 z m 0,0"
       style="fill:#000000;fill-opacity:1;fill-rule:nonzero;stroke:none;stroke-width:1.13833773"
       id="path8"
       inkscape:connector-curvature="0" />
    <path
       d="m 55.699677,92.661429 h 53.258333 c 1.24023,0 2.24939,-0.901491 2.24939,-2.004246 0,-1.106945 -1.00916,-2.004241 -2.24939,-2.004241 H 55.699677 c -1.244925,0 -2.249354,0.897296 -2.249354,2.004241 0,1.102755 1.004429,2.004246 2.249354,2.004246 z m 0,0"
       style="fill:#000000;fill-opacity:1;fill-rule:nonzero;stroke:none;stroke-width:1.13833773"
       id="path10"
       inkscape:connector-curvature="0" />
    <path
       d="m 28.299567,54.778151 c 0.303137,0.448651 0.767943,0.746351 1.285295,0.83021 h 0.286968 c 0.424389,0 0.840697,-0.150946 1.18425,-0.427682 l 12.299233,-9.970903 c 0.925576,-0.557665 1.240835,-1.782017 0.707317,-2.738016 -0.533519,-0.960192 -1.713727,-1.287245 -2.635263,-0.729576 -0.16167,0.09224 -0.307175,0.21384 -0.436514,0.352209 L 30.292179,50.77805 28.424863,48.014878 c -0.610315,-0.905682 -1.814774,-1.132103 -2.687805,-0.494771 -0.873033,0.63314 -1.09129,1.882647 -0.476934,2.788331 z m 0,0"
       style="fill:#000000;fill-opacity:1;fill-rule:nonzero;stroke:none;stroke-width:1.05387533"
       id="path14"
       inkscape:connector-curvature="0" />
    <path
       d="m 28.299567,75.369868 c 0.303137,0.44865 0.767943,0.750546 1.285295,0.834404 h 0.286968 c 0.424389,-0.0042 0.840697,-0.15514 1.18425,-0.431877 L 43.355313,65.7973 c 0.864949,-0.654104 1.046828,-1.907805 0.412267,-2.800909 -0.630525,-0.888913 -1.839026,-1.08179 -2.699932,-0.419299 -0.02829,0.02096 -0.06063,0.04612 -0.08892,0.07128 l -10.686549,8.69205 -1.867319,-2.763173 c -0.476931,-0.989544 -1.636931,-1.39207 -2.586757,-0.901491 -0.953869,0.494772 -1.341881,1.698158 -0.864948,2.691892 0.07681,0.155143 0.169756,0.306086 0.286968,0.43607 z m 0,0"
       style="fill:#000000;fill-opacity:1;fill-rule:nonzero;stroke:none;stroke-width:1.05387533"
       id="path16"
       inkscape:connector-curvature="0" />
    <path
       d="m 28.299567,96.020289 c 0.303137,0.444452 0.767943,0.742152 1.285295,0.826012 h 0.286968 c 0.424389,0 0.840697,-0.15095 1.18425,-0.42768 l 12.299233,-9.975094 c 0.864949,-0.658298 1.046828,-1.912001 0.412267,-2.80091 -0.630525,-0.893105 -1.839026,-1.077596 -2.699932,-0.423491 -0.02829,0.02518 -0.06063,0.04612 -0.08892,0.07128 l -10.698674,8.666891 -1.863278,-2.763173 c -0.614352,-0.905683 -1.818812,-1.127911 -2.691844,-0.494771 -0.877073,0.63733 -1.087247,1.88684 -0.476935,2.792522 z m 0,0"
       style="fill:#000000;fill-opacity:1;fill-rule:nonzero;stroke:none;stroke-width:1.05387533"
       id="path18"
       inkscape:connector-curvature="0" />
  </g>
  <path
     style="fill:#000000;fill-opacity:1;stroke:#000000;stroke-width:0.76703107;stroke-opacity:1"
     d="m 123.07768,364.3795 c -2.83503,-1.14351 -14.83759,-19.83465 -14.83759,-23.10603 0,-2.92665 3.44109,-6.81101 6.03376,-6.81101 3.05362,0 4.95442,1.68517 8.64273,7.66228 1.82498,2.95749 3.49762,5.37357 3.71696,5.36908 0.21935,-0.005 9.13229,-7.42552 19.80654,-16.49117 16.668,-14.15614 19.76216,-16.483 21.91844,-16.483 4.84098,0 8.0029,6.04082 5.2995,10.12466 -2.85337,4.31041 -47.12578,41.01956 -48.78494,40.45078 -0.078,-0.0267 -0.88593,-0.34876 -1.7954,-0.71559 z"
     id="path15"
     inkscape:connector-curvature="0" />
  <path
     style="fill:#000000;fill-opacity:1;stroke:#000000;stroke-width:0.76703107;stroke-opacity:1"
     d="m 121.71489,287.48181 c -3.36864,-2.97928 -13.62912,-19.8387 -13.70511,-22.51943 -0.14013,-4.94345 4.27187,-8.40367 8.34746,-6.54671 1.02728,0.46806 3.61455,3.53205 5.7495,6.80887 2.13495,3.27682 4.17935,6.06506 4.54311,6.19609 0.36376,0.13103 9.37685,-7.2037 20.02909,-16.29941 16.30739,-13.92451 19.74873,-16.53764 21.779,-16.53764 3.98425,0 7.13226,4.55582 6.07067,8.78552 -0.353,1.40645 -7.23586,7.74249 -22.85016,21.03479 -12.28975,10.46214 -23.09893,19.42295 -24.0204,19.91291 -2.43095,1.29257 -3.74654,1.10773 -5.94316,-0.83499 z"
     id="path17"
     inkscape:connector-curvature="0" />
  <path
     style="fill:#000000;fill-opacity:1;stroke:#000000;stroke-width:0.76703107;stroke-opacity:1"
     d="m 121.4271,211.92925 c -2.94806,-2.54232 -13.18701,-19.5151 -13.18701,-21.85968 0,-2.74832 3.71462,-6.71223 6.29009,-6.71223 2.7903,0 4.78,1.8179 8.3864,7.66228 1.82498,2.95748 3.51822,5.37725 3.76275,5.37725 0.24453,0 9.34641,-7.59361 20.2264,-16.87469 16.89575,-14.41275 20.14281,-16.87468 22.25617,-16.87468 4.36805,0 7.40905,5.12276 5.56486,9.37438 -0.51161,1.17948 -10.9153,10.59646 -23.91644,21.64816 -24.55104,20.86975 -25.6001,21.52166 -29.38322,18.25921 z"
     id="path19"
     inkscape:connector-curvature="0" />
  <path
     d="m 121.80127,363.58127 c -2.21304,-1.74079 -12.60813,-17.75568 -13.29099,-20.47638 -1.08543,-4.32472 1.97002,-8.64243 6.11587,-8.64243 2.90204,0 4.2261,1.21285 8.58295,7.86207 1.58944,2.42574 3.20139,4.41043 3.58209,4.41043 0.38071,0 8.96921,-6.98957 19.08555,-15.53238 10.11635,-8.54281 19.31541,-15.92238 20.44237,-16.39905 4.56702,-1.9317 9.30486,2.51899 8.3125,7.80872 -0.50491,2.69142 -6.81698,8.48857 -33.02567,30.33157 -16.39968,13.66791 -16.13368,13.52504 -19.80467,10.63745 z"
     id="path37"
     inkscape:connector-curvature="0" />
</svg>
