<?xml version="1.0" encoding="UTF-8" standalone="no"?>
<!-- Generator: Adobe Illustrator 17.1.0, SVG Export Plug-In . SVG Version: 6.00 Build 0)  -->

<svg
   xmlns:dc="http://purl.org/dc/elements/1.1/"
   xmlns:cc="http://creativecommons.org/ns#"
   xmlns:rdf="http://www.w3.org/1999/02/22-rdf-syntax-ns#"
   xmlns:svg="http://www.w3.org/2000/svg"
   xmlns="http://www.w3.org/2000/svg"
   xmlns:sodipodi="http://sodipodi.sourceforge.net/DTD/sodipodi-0.dtd"
   xmlns:inkscape="http://www.inkscape.org/namespaces/inkscape"
   version="1.1"
   id="Capa_1"
   x="0px"
   y="0px"
   viewBox="0 0 511 511"
   style="enable-background:new 0 0 511 511;"
   xml:space="preserve"
   sodipodi:docname="task.svg"
   inkscape:version="0.92.3 (2405546, 2018-03-11)"><metadata
     id="metadata53"><rdf:RDF><cc:Work
         rdf:about=""><dc:format>image/svg+xml</dc:format><dc:type
           rdf:resource="http://purl.org/dc/dcmitype/StillImage" /><dc:title /></cc:Work></rdf:RDF></metadata><defs
     id="defs51" /><sodipodi:namedview
     pagecolor="#ffffff"
     bordercolor="#666666"
     borderopacity="1"
     objecttolerance="10"
     gridtolerance="10"
     guidetolerance="10"
     inkscape:pageopacity="0"
     inkscape:pageshadow="2"
     inkscape:window-width="1920"
     inkscape:window-height="1041"
     id="namedview49"
     showgrid="false"
     inkscape:zoom="0.92367908"
     inkscape:cx="60.825361"
     inkscape:cy="306.22236"
     inkscape:window-x="0"
     inkscape:window-y="0"
     inkscape:window-maximized="1"
     inkscape:current-layer="Capa_1" /><path
     d="M 419.12154,50.939685 H 92.921767 c -24.956728,0 -45.260218,24.701295 -45.260218,55.063735 v 301.61037 c 0,30.36245 20.30349,55.06374 45.260218,55.06374 H 419.12154 c 24.95674,0 45.26023,-24.70129 45.26023,-55.06374 V 106.00342 c 0,-30.36244 -20.30349,-55.063735 -45.26023,-55.063735 z m 33.02774,356.674105 c 0,22.15646 -14.81598,40.18165 -33.02774,40.18165 H 92.921767 c -18.211733,0 -33.027727,-18.02519 -33.027727,-40.18165 V 106.00342 c 0,-22.156456 14.815994,-40.181644 33.027727,-40.181644 H 419.12154 c 18.21176,0 33.02774,18.025188 33.02774,40.181644 z"
     id="path2"
     inkscape:connector-curvature="0"
     style="stroke:#000000;stroke-width:0.9142912;stroke-opacity:1" /><path
     d="m 164.64608,326.49594 h -30.02101 c -12.15663,0 -22.04668,10.12353 -22.04668,22.56716 v 30.72978 c 0,12.44362 9.89005,22.56715 22.04668,22.56715 h 30.02101 c 12.15661,0 22.04666,-10.12353 22.04666,-22.56715 V 349.0631 c 0,-12.44363 -9.89005,-22.56716 -22.04666,-22.56716 z m 7.97432,53.29694 c 0,4.50093 -3.57719,8.16257 -7.97432,8.16257 h -30.02101 c -4.39716,0 -7.97433,-3.66164 -7.97433,-8.16257 V 349.0631 c 0,-4.50093 3.57717,-8.16259 7.97433,-8.16259 h 30.02101 c 4.39713,0 7.97432,3.66166 7.97432,8.16259 z"
     id="path4"
     inkscape:connector-curvature="0"
     style="stroke-width:0.91744536" /><path
     d="m 378.71943,360.71635 h -153.8383 c -2.56934,0 -4.65237,3.3316 -4.65237,7.44104 0,4.10945 2.08303,7.44104 4.65237,7.44104 h 153.8383 c 2.56934,0 4.65236,-3.33159 4.65236,-7.44104 0,-4.10944 -2.08302,-7.44104 -4.65236,-7.44104 z"
     id="path6"
     inkscape:connector-curvature="0"
     style="stroke-width:0.8695541" /><path
     d="m 164.64608,227.19377 h -30.02101 c -12.15663,0 -22.04668,10.12354 -22.04668,22.56717 v 30.72976 c 0,12.44362 9.89005,22.56717 22.04668,22.56717 h 30.02101 c 12.15661,0 22.04666,-10.12355 22.04666,-22.56717 v -30.72976 c 0,-12.44363 -9.89005,-22.56717 -22.04666,-22.56717 z m 7.97432,53.29693 c 0,4.50093 -3.57719,8.16258 -7.97432,8.16258 h -30.02101 c -4.39716,0 -7.97433,-3.66165 -7.97433,-8.16258 v -30.72976 c 0,-4.50096 3.57717,-8.1626 7.97433,-8.1626 h 30.02101 c 4.39713,0 7.97432,3.66164 7.97432,8.1626 z"
     id="path8"
     inkscape:connector-curvature="0"
     style="stroke-width:0.91744536" /><path
     d="m 378.71943,260.82664 h -153.8383 c -2.56934,0 -4.65237,3.33159 -4.65237,7.44104 0,4.10944 2.08303,7.44104 4.65237,7.44104 h 153.8383 c 2.56934,0 4.65236,-3.3316 4.65236,-7.44104 0,-4.10945 -2.08302,-7.44104 -4.65236,-7.44104 z"
     id="path10"
     inkscape:connector-curvature="0"
     style="stroke-width:0.8695541" /><path
     d="m 164.64608,126.81741 h -30.02101 c -12.15663,0 -22.04668,10.12354 -22.04668,22.56716 v 30.72977 c 0,12.44364 9.89005,22.56716 22.04668,22.56716 h 30.02101 c 12.15661,0 22.04666,-10.12352 22.04666,-22.56716 v -30.72977 c 0,-12.44362 -9.89005,-22.56716 -22.04666,-22.56716 z m 7.97432,53.29693 c 0,4.50094 -3.57719,8.1626 -7.97432,8.1626 h -30.02101 c -4.39716,0 -7.97433,-3.66166 -7.97433,-8.1626 v -30.72977 c 0,-4.50094 3.57717,-8.1626 7.97433,-8.1626 h 30.02101 c 4.39713,0 7.97432,3.66166 7.97432,8.1626 z"
     id="path12"
     inkscape:connector-curvature="0"
     style="stroke-width:0.91744536" /><path
     d="m 377.74016,158.61959 h -153.8383 c -2.56935,0 -4.65237,3.3316 -4.65237,7.44104 0,4.10944 2.08302,7.44105 4.65237,7.44105 h 153.8383 c 2.56934,0 4.65236,-3.33161 4.65236,-7.44105 0,-4.10944 -2.08302,-7.44104 -4.65236,-7.44104 z"
     id="path14"
     inkscape:connector-curvature="0"
     style="stroke-width:0.8695541" /></svg>